<?xml version="1.0" standalone="no"?>
<!DOCTYPE svg PUBLIC "-//W3C//DTD SVG 20010904//EN"
 "http://www.w3.org/TR/2001/REC-SVG-20010904/DTD/svg10.dtd">
<svg version="1.0" xmlns="http://www.w3.org/2000/svg"
 width="711.000000pt" height="422.000000pt" viewBox="0 0 711.000000 422.000000"
 preserveAspectRatio="xMidYMid meet">

<g transform="translate(0.000000,422.000000) scale(0.100000,-0.100000)"
fill="#000000" stroke="none">
<path d="M3607 3844 c-4 -4 -7 -96 -7 -204 0 -163 3 -200 15 -210 12 -10 18
-10 30 0 13 11 15 44 13 214 -3 194 -4 201 -23 204 -12 2 -24 0 -28 -4z"/>
<path d="M3291 3696 c-13 -15 -4 -44 57 -181 30 -66 46 -91 61 -93 40 -6 38
24 -5 123 -7 17 -23 55 -34 85 -32 81 -52 98 -79 66z"/>
<path d="M3922 3697 c-6 -7 -22 -45 -35 -83 -14 -38 -34 -92 -45 -121 -19 -48
-20 -54 -6 -68 20 -20 35 -9 57 42 85 203 89 214 77 228 -15 19 -34 19 -48 2z"/>
<path d="M2920 3638 c1 -16 45 -69 135 -161 122 -126 136 -137 155 -127 12 6
20 17 18 25 -2 7 -63 75 -136 149 -133 136 -172 162 -172 114z"/>
<path d="M4162 3522 c-78 -79 -132 -142 -130 -151 2 -9 13 -17 26 -19 17 -3
53 27 157 130 140 138 160 171 105 174 -20 2 -53 -27 -158 -134z"/>
<path d="M4415 3359 c-22 -10 -71 -31 -109 -47 -80 -35 -108 -56 -100 -77 9
-23 31 -19 160 34 91 38 120 54 122 70 5 32 -27 41 -73 20z"/>
<path d="M2780 3351 c-8 -16 -5 -23 16 -40 15 -12 30 -21 35 -21 5 0 32 -11
61 -23 123 -55 163 -60 163 -22 0 20 -6 23 -105 69 -134 62 -154 66 -170 37z"/>
<path d="M3338 3242 c-60 -3 -70 -6 -91 -31 -13 -16 -37 -69 -52 -117 -33
-104 -53 -129 -109 -142 -152 -35 -373 -96 -390 -107 -10 -8 -29 -31 -40 -52
l-22 -38 -59 5 c-156 13 -232 -4 -339 -78 -56 -38 -119 -128 -150 -214 -25
-67 -31 -76 -81 -107 -54 -34 -135 -122 -135 -146 0 -8 -26 -17 -67 -25 -180
-31 -263 -119 -263 -276 0 -71 31 -167 58 -181 9 -4 911 -9 2004 -11 l1987 -3
20 22 c40 43 65 127 65 219 1 112 -31 185 -115 265 -75 72 -132 97 -235 104
l-82 6 -52 78 c-53 79 -102 124 -184 167 -42 23 -46 29 -57 80 -32 153 -162
311 -323 391 -83 41 -94 44 -188 47 -109 5 -216 -14 -277 -49 -19 -11 -39 -18
-46 -15 -6 2 -22 35 -35 73 -46 138 -27 131 -386 135 -159 2 -319 2 -356 0z
m656 -84 c7 -13 24 -54 36 -93 29 -91 45 -122 73 -140 13 -8 115 -37 227 -65
113 -28 213 -58 222 -67 17 -15 18 -49 18 -488 0 -435 -1 -474 -17 -494 -18
-21 -23 -21 -267 -19 l-249 3 -12 40 c-18 60 -41 101 -82 141 -32 32 -34 38
-19 46 33 18 104 128 126 194 18 54 22 82 18 159 -3 82 -8 101 -41 168 -63
128 -182 216 -323 239 -163 27 -349 -55 -429 -191 -16 -28 -34 -51 -38 -51 -5
0 -23 11 -41 25 -84 64 -193 91 -301 75 l-75 -11 -54 48 c-50 43 -54 50 -50
82 2 20 8 38 12 41 4 4 77 23 162 44 320 78 311 72 355 209 15 45 34 92 41
105 l14 22 340 0 340 0 14 -22z m530 -134 c84 -22 160 -67 228 -135 79 -81
115 -159 144 -315 2 -14 20 -28 51 -41 68 -29 144 -92 186 -156 20 -30 37 -58
37 -61 0 -3 -15 -12 -33 -20 -75 -31 -151 -122 -126 -152 19 -23 36 -17 76 27
57 61 104 82 201 87 77 4 87 3 148 -28 148 -73 215 -252 148 -395 l-19 -40
-468 -3 -467 -2 0 511 0 511 -27 27 c-23 23 -58 35 -198 70 -241 60 -245 61
-245 71 0 9 69 37 122 50 57 14 178 11 242 -6z m-727 -339 c72 -36 140 -107
177 -185 26 -55 30 -76 30 -150 1 -77 -2 -92 -31 -150 -18 -36 -51 -85 -73
-109 -38 -40 -44 -43 -78 -37 -20 3 -70 8 -110 12 -65 6 -75 10 -89 33 -49 80
-73 109 -125 146 -31 23 -76 47 -101 53 -54 14 -59 20 -87 106 -22 66 -22 70
-5 104 41 87 132 168 220 196 74 24 202 15 272 -19z m-1167 -7 c60 -25 120
-68 120 -84 0 -7 -9 -18 -19 -23 -30 -16 -91 -106 -91 -134 0 -38 30 -44 57
-10 12 15 34 42 48 60 15 18 52 45 83 60 48 24 69 28 137 28 69 -1 87 -4 134
-30 29 -16 70 -49 92 -73 39 -44 79 -134 79 -175 0 -29 18 -47 45 -47 101 0
221 -92 250 -193 l16 -55 97 2 c88 1 102 -2 148 -26 68 -36 134 -119 134 -167
l0 -21 -1164 0 c-967 0 -1165 2 -1175 14 -6 7 -15 34 -20 60 -17 94 24 184
106 233 40 23 59 27 119 28 40 0 74 2 77 5 2 3 15 27 28 53 22 45 98 127 117
127 5 0 12 -23 15 -51 6 -49 40 -135 69 -173 10 -13 21 -16 36 -12 29 9 28 27
-5 94 -50 103 -41 262 22 362 95 151 289 216 445 148z"/>
<path d="M3707 2603 c-18 -17 -6 -53 23 -68 16 -8 53 -36 81 -61 52 -46 91
-55 97 -24 3 19 -77 103 -130 136 -38 24 -59 29 -71 17z"/>
<path d="M2770 3080 c-177 -5 -185 -6 -185 -25 0 -19 8 -20 198 -23 170 -2
198 0 203 13 6 15 -13 47 -25 43 -3 -1 -89 -5 -191 -8z"/>
<path d="M1322 1281 c-44 -12 -80 -46 -92 -90 -12 -43 -13 -468 -1 -530 12
-63 53 -99 122 -110 135 -22 219 37 219 154 0 46 0 46 -31 43 -29 -3 -31 -6
-34 -46 -6 -81 -53 -113 -142 -99 -61 10 -67 24 -74 160 -3 67 -3 126 2 131 4
5 68 9 141 10 l133 1 3 135 c3 153 -8 190 -66 223 -36 21 -130 30 -180 18z
m164 -76 c24 -24 25 -29 22 -132 l-3 -108 -107 -3 -108 -3 0 113 c0 101 2 114
22 135 18 19 32 23 85 23 55 0 67 -4 89 -25z"/>
<path d="M1895 1283 c-80 -21 -115 -66 -115 -147 0 -44 1 -46 30 -46 29 0 30
2 30 44 0 33 6 52 24 73 21 24 31 27 78 27 64 -1 95 -16 108 -50 14 -37 13
-197 -2 -212 -7 -7 -43 -12 -87 -13 -97 0 -139 -15 -168 -58 -20 -30 -23 -46
-23 -138 0 -68 5 -116 14 -138 20 -47 69 -75 129 -75 53 0 79 10 119 47 29 28
44 24 59 -14 23 -61 29 -2 29 290 0 330 -3 347 -61 390 -26 19 -124 31 -164
20z m163 -468 c4 -108 -9 -148 -60 -185 -56 -41 -117 -42 -148 -2 -20 25 -22
36 -18 133 4 140 4 140 127 137 l96 -3 3 -80z"/>
<path d="M3432 1281 c-49 -13 -80 -47 -89 -100 -5 -25 -8 -154 -8 -286 0 -223
1 -243 20 -275 28 -47 83 -73 155 -73 111 1 170 53 170 149 0 47 -2 52 -25 56
-32 7 -35 3 -35 -49 0 -36 -6 -50 -29 -74 -25 -25 -37 -29 -84 -29 -39 0 -62
6 -78 19 -23 18 -24 24 -24 153 l0 133 138 -3 137 -4 0 144 c0 161 -10 192
-71 224 -38 19 -130 27 -177 15z m166 -74 c21 -20 22 -27 20 -132 l-3 -110
-104 -3 c-57 -1 -107 1 -111 5 -4 4 -5 59 -1 121 5 99 9 115 26 125 53 31 135
28 173 -6z"/>
<path d="M4035 1281 c-11 -5 -33 -23 -49 -41 l-28 -33 -20 32 c-11 17 -24 31
-29 31 -6 0 -8 -144 -7 -352 l3 -353 23 -3 c12 -2 24 3 27 10 3 7 6 137 8 288
2 246 5 279 22 314 29 61 108 81 143 38 6 -9 12 -40 12 -69 0 -53 0 -53 31
-53 l32 0 -6 59 c-3 33 -13 73 -23 90 -26 44 -88 62 -139 42z"/>
<path d="M4865 1281 c-46 -12 -73 -33 -90 -67 -21 -45 -22 -541 -1 -582 36
-69 107 -96 211 -80 59 9 94 32 118 79 16 31 17 61 15 299 -3 288 -5 298 -62
335 -27 18 -146 28 -191 16z m127 -51 c10 0 30 -11 43 -25 l25 -24 0 -250 c0
-137 -4 -261 -10 -275 -13 -35 -59 -56 -125 -56 -46 0 -60 4 -80 25 l-25 24 0
264 c0 250 1 266 20 290 21 27 56 37 104 31 16 -2 37 -4 48 -4z"/>
<path d="M5980 1279 c-66 -20 -100 -73 -100 -157 0 -32 2 -33 33 -30 31 3 32
4 33 52 3 71 26 91 106 90 54 -1 64 -4 85 -28 22 -26 23 -35 21 -134 l-3 -107
-102 -6 c-157 -10 -183 -37 -183 -198 0 -151 41 -211 144 -211 53 0 90 16 125
54 26 28 38 26 51 -10 25 -64 30 -16 30 284 0 287 -1 309 -20 339 -10 18 -30
39 -44 48 -31 21 -129 28 -176 14z m173 -378 c4 0 7 -49 7 -108 l0 -106 -45
-44 c-41 -39 -50 -43 -95 -43 -46 0 -52 3 -71 33 -17 28 -20 45 -17 129 5 124
14 136 107 140 61 3 94 3 114 -1z"/>
<path d="M3060 1131 c0 -82 -3 -156 -6 -165 -5 -13 -25 -16 -120 -16 l-114 0
0 160 0 160 -30 0 -30 0 2 -352 3 -353 25 0 25 0 5 165 5 165 104 3 c67 2 108
-1 117 -9 11 -9 14 -47 14 -171 l0 -159 28 3 27 3 0 355 0 355 -27 3 -28 3 0
-150z"/>
<path d="M430 1258 c0 -7 7 -53 15 -103 8 -49 30 -200 50 -335 19 -134 39
-248 44 -253 4 -4 26 -7 47 -5 l39 3 28 140 c15 77 38 198 52 268 13 71 26
132 29 135 17 16 33 -39 80 -280 l52 -263 38 -3 c21 -2 43 1 48 6 4 4 18 69
29 143 53 355 79 533 79 546 0 8 -12 13 -30 13 -17 0 -30 -5 -30 -12 0 -7 -14
-105 -30 -218 -17 -113 -35 -236 -40 -275 -12 -79 -24 -100 -38 -64 -6 13 -29
125 -52 249 -65 352 -55 322 -98 318 -33 -3 -37 -6 -40 -33 -8 -73 -103 -530
-112 -539 -6 -6 -11 -4 -14 5 -7 18 -30 167 -61 381 -13 92 -26 172 -30 178
-9 14 -55 13 -55 -2z"/>
<path d="M2330 959 c0 -267 2 -316 16 -345 20 -42 59 -64 114 -64 93 0 133 59
128 185 -3 68 -4 70 -30 73 l-28 3 0 -79 c0 -97 -20 -132 -75 -132 -64 0 -66
10 -63 331 l3 284 83 3 c79 3 83 4 80 25 -3 21 -8 22 -115 25 l-113 3 0 -312z"/>
<path d="M4270 1245 c0 -23 3 -24 68 -27 l67 -3 5 -325 5 -325 27 -3 28 -3 2
328 3 328 60 3 c81 3 88 7 75 32 -10 19 -21 20 -175 20 l-165 0 0 -25z"/>
<path d="M5342 918 l3 -353 79 -3 c145 -5 216 24 245 101 7 17 11 121 11 261
0 220 -1 234 -22 276 -30 58 -61 69 -206 69 l-112 1 2 -352z m222 288 c19 -8
38 -25 43 -38 4 -12 7 -129 5 -258 l-2 -235 -30 -27 c-27 -25 -37 -28 -105
-28 l-75 0 0 293 c0 162 3 297 7 300 12 12 123 7 157 -7z"/>
<path d="M6410 1073 c0 -255 -1 -253 130 -313 12 -6 16 -30 18 -104 l3 -97 27
3 c27 3 27 3 32 103 l5 99 38 9 c40 10 88 53 99 89 3 13 6 110 7 216 l1 192
-32 0 -33 0 3 -195 3 -195 -31 -31 c-30 -30 -33 -31 -102 -27 -108 6 -108 5
-108 249 l0 199 -30 0 -30 0 0 -197z"/>
</g>
</svg>
